<mxfile host="app.diagrams.net" modified="2023-10-30T11:29:53.328Z" agent="Mozilla/5.0 (Macintosh; Intel Mac OS X 10_15_7) AppleWebKit/537.36 (KHTML, like Gecko) Chrome/118.0.0.0 Safari/537.36" etag="tn_Enjs54mGrTmMVC6sH" version="22.0.8" type="google" pages="3">
  <diagram name="registry" id="d8tqtMajIEEuDlyx0NQ4">
    <mxGraphModel grid="1" page="1" gridSize="10" guides="1" tooltips="1" connect="1" arrows="1" fold="1" pageScale="1" pageWidth="827" pageHeight="1169" math="0" shadow="0">
      <root>
        <mxCell id="0" />
        <mxCell id="1" parent="0" />
        <mxCell id="d_0QQ_SgHGCF8koZ1ng2-3" value="&lt;b&gt;DC Backend&lt;/b&gt;" style="rounded=0;whiteSpace=wrap;html=1;verticalAlign=bottom;align=left;strokeWidth=0.5;gradientColor=#C4C4C4;gradientDirection=east;" vertex="1" parent="1">
          <mxGeometry x="283" y="502" width="239" height="90" as="geometry" />
        </mxCell>
        <mxCell id="0lItBeviN61shpGZVHg3-16" value="&lt;b&gt;&lt;font style=&quot;font-size: 10px;&quot;&gt;DC Backend&lt;/font&gt;&lt;/b&gt;" style="rounded=0;whiteSpace=wrap;html=1;verticalAlign=bottom;align=left;strokeWidth=0.5;gradientColor=#C4C4C4;gradientDirection=east;" vertex="1" parent="1">
          <mxGeometry x="229" y="1008" width="590" height="270" as="geometry" />
        </mxCell>
        <mxCell id="0lItBeviN61shpGZVHg3-226" value="&lt;b&gt;&lt;font style=&quot;font-size: 10px;&quot;&gt;&lt;i&gt;&amp;nbsp; &amp;nbsp; &amp;nbsp; DC Ref &amp;nbsp;System/Platform&lt;/i&gt;&lt;/font&gt;&lt;/b&gt;" style="rounded=1;whiteSpace=wrap;html=1;verticalAlign=bottom;dashed=1;align=left;" vertex="1" parent="1">
          <mxGeometry x="255" y="1018" width="484" height="242" as="geometry" />
        </mxCell>
        <mxCell id="0lItBeviN61shpGZVHg3-236" value="&lt;b&gt;&lt;font style=&quot;font-size: 10px;&quot;&gt;DP-2 Backend&lt;/font&gt;&lt;/b&gt;" style="rounded=0;whiteSpace=wrap;html=1;verticalAlign=top;align=left;strokeWidth=0.5;fillColor=#f5f5f5;fontColor=#333333;strokeColor=#666666;gradientColor=#C4C4C4;gradientDirection=east;" vertex="1" parent="1">
          <mxGeometry x="540.5" y="687" width="438.5" height="284" as="geometry" />
        </mxCell>
        <mxCell id="0lItBeviN61shpGZVHg3-234" value="&lt;b&gt;&lt;font style=&quot;font-size: 10px;&quot;&gt;DP 1 Backend&lt;/font&gt;&lt;/b&gt;" style="rounded=0;whiteSpace=wrap;html=1;verticalAlign=top;align=left;strokeWidth=0.5;gradientColor=#C4C4C4;gradientDirection=east;" vertex="1" parent="1">
          <mxGeometry x="80" y="688" width="439" height="284" as="geometry" />
        </mxCell>
        <mxCell id="0lItBeviN61shpGZVHg3-158" value="&lt;b&gt;g2pc-reg-svc (docker)&lt;/b&gt;" style="rounded=0;whiteSpace=wrap;html=1;verticalAlign=top;align=left;strokeWidth=0.5;fillColor=#dae8fc;strokeColor=#6c8ebf;gradientDirection=east;" vertex="1" parent="1">
          <mxGeometry x="555" y="729" width="284" height="200" as="geometry" />
        </mxCell>
        <mxCell id="0lItBeviN61shpGZVHg3-159" value="&lt;p style=&quot;&quot;&gt;&lt;b&gt;g2pc-dp-adaptor.jar&lt;/b&gt;&lt;/p&gt;" style="rounded=0;whiteSpace=wrap;html=1;align=left;direction=west;horizontal=1;verticalAlign=top;strokeWidth=2;fillColor=#d5e8d4;strokeColor=#82b366;" vertex="1" parent="1">
          <mxGeometry x="570" y="759" width="249" height="148" as="geometry" />
        </mxCell>
        <mxCell id="0lItBeviN61shpGZVHg3-29" value="&lt;b&gt;g2pc-reg-svc (docker)&lt;/b&gt;" style="rounded=0;whiteSpace=wrap;html=1;verticalAlign=top;align=left;strokeWidth=0.5;fillColor=#dae8fc;strokeColor=#6c8ebf;" vertex="1" parent="1">
          <mxGeometry x="120" y="729" width="309" height="210" as="geometry" />
        </mxCell>
        <mxCell id="0lItBeviN61shpGZVHg3-37" value="&lt;p style=&quot;&quot;&gt;&lt;b&gt;g2pc-dp-adaptor.jar&lt;/b&gt;&lt;/p&gt;" style="rounded=0;whiteSpace=wrap;html=1;align=left;direction=west;horizontal=1;verticalAlign=top;strokeWidth=2;fillColor=#d5e8d4;strokeColor=#82b366;" vertex="1" parent="1">
          <mxGeometry x="149" y="761" width="270" height="146" as="geometry" />
        </mxCell>
        <mxCell id="0lItBeviN61shpGZVHg3-12" value="&lt;p style=&quot;&quot;&gt;&lt;b&gt;g2pc-dc-adaptor.jar&lt;/b&gt;&lt;/p&gt;" style="rounded=0;whiteSpace=wrap;html=1;align=left;direction=west;horizontal=1;verticalAlign=bottom;fillStyle=auto;strokeWidth=2;fillColor=#d5e8d4;strokeColor=#82b366;" vertex="1" parent="1">
          <mxGeometry x="366" y="1031" width="340" height="200" as="geometry" />
        </mxCell>
        <mxCell id="0lItBeviN61shpGZVHg3-212" style="edgeStyle=elbowEdgeStyle;rounded=0;orthogonalLoop=1;jettySize=auto;elbow=vertical;html=1;exitX=0.861;exitY=0.036;exitDx=0;exitDy=0;exitPerimeter=0;dashed=1;strokeWidth=1;endArrow=oval;endFill=0;entryX=0.604;entryY=1.006;entryDx=0;entryDy=0;entryPerimeter=0;strokeColor=#FF6619;dashPattern=12 12;" edge="1" parent="1" source="0lItBeviN61shpGZVHg3-15">
          <mxGeometry relative="1" as="geometry">
            <mxPoint x="675.52" y="1038" as="sourcePoint" />
            <mxPoint x="749.9359999999999" y="871.962" as="targetPoint" />
            <Array as="points">
              <mxPoint x="659" y="1002" />
            </Array>
          </mxGeometry>
        </mxCell>
        <mxCell id="0lItBeviN61shpGZVHg3-15" value="&lt;i style=&quot;font-size: 10px;&quot;&gt;&lt;font style=&quot;font-size: 10px;&quot;&gt;&lt;br&gt;&lt;br&gt;&lt;br&gt;/on-search&lt;br&gt;/on-status&lt;br&gt;/on-txnstatus&lt;/font&gt;&lt;/i&gt;&lt;br&gt;g2p-dc-core.jar" style="rounded=1;whiteSpace=wrap;html=1;verticalAlign=bottom;fillColor=#ffe6cc;strokeColor=#d79b00;" vertex="1" parent="1">
          <mxGeometry x="521" y="1047" width="180" height="84" as="geometry" />
        </mxCell>
        <mxCell id="0lItBeviN61shpGZVHg3-27" value="entity (or dto)" style="rounded=1;whiteSpace=wrap;html=1;verticalAlign=middle;fillColor=#d5e8d4;strokeColor=#82b366;" vertex="1" parent="1">
          <mxGeometry x="381" y="1161" width="110" height="28" as="geometry" />
        </mxCell>
        <mxCell id="0lItBeviN61shpGZVHg3-246" style="edgeStyle=elbowEdgeStyle;rounded=0;orthogonalLoop=1;jettySize=auto;html=1;exitX=1;exitY=0.5;exitDx=0;exitDy=0;" edge="1" parent="1" source="0lItBeviN61shpGZVHg3-30" target="0lItBeviN61shpGZVHg3-45">
          <mxGeometry relative="1" as="geometry" />
        </mxCell>
        <mxCell id="0lItBeviN61shpGZVHg3-30" value="g2pc-dp-core.jar&lt;br&gt;&lt;br&gt;&lt;i style=&quot;font-size: 10px;&quot;&gt;/search &amp;amp; /sync/search&lt;br&gt;txn//status &amp;nbsp;&amp;amp; sync/txn/status&lt;/i&gt;" style="rounded=1;whiteSpace=wrap;html=1;verticalAlign=top;align=left;fillColor=#ffe6cc;strokeColor=#d79b00;" vertex="1" parent="1">
          <mxGeometry x="223" y="801" width="152" height="77" as="geometry" />
        </mxCell>
        <mxCell id="0lItBeviN61shpGZVHg3-31" value="entity (or dto)" style="rounded=1;whiteSpace=wrap;html=1;verticalAlign=middle;fillColor=#d5e8d4;strokeColor=#82b366;" vertex="1" parent="1">
          <mxGeometry x="149" y="885" width="110" height="18" as="geometry" />
        </mxCell>
        <mxCell id="0lItBeviN61shpGZVHg3-45" value="&lt;font style=&quot;font-size: 10px;&quot;&gt;Registry-1&lt;/font&gt;" style="shape=cylinder3;whiteSpace=wrap;html=1;boundedLbl=1;backgroundOutline=1;size=15;fillColor=#e1d5e7;strokeColor=#9673a6;" vertex="1" parent="1">
          <mxGeometry x="449" y="778" width="58" height="71" as="geometry" />
        </mxCell>
        <mxCell id="0lItBeviN61shpGZVHg3-2" value="&lt;p style=&quot;&quot;&gt;&lt;b&gt;g2pc-dc-core.jar&lt;/b&gt;&lt;/p&gt;" style="rounded=0;whiteSpace=wrap;html=1;align=left;direction=west;horizontal=1;verticalAlign=bottom;movable=1;resizable=1;rotatable=1;deletable=1;editable=1;locked=0;connectable=1;fillColor=#ffe6cc;strokeColor=#d79b00;" vertex="1" parent="1">
          <mxGeometry x="170" y="1427" width="320" height="233" as="geometry" />
        </mxCell>
        <mxCell id="0lItBeviN61shpGZVHg3-6" value="g2pc-common.jar" style="rounded=1;whiteSpace=wrap;html=1;movable=1;resizable=1;rotatable=1;deletable=1;editable=1;locked=0;connectable=1;dashed=1;strokeColor=#FFB366;" vertex="1" parent="1">
          <mxGeometry x="351" y="1442" width="130" height="20" as="geometry" />
        </mxCell>
        <mxCell id="0lItBeviN61shpGZVHg3-3" value="tomcat listener&lt;br&gt;a.b.c.d:8801" style="rounded=1;whiteSpace=wrap;html=1;movable=1;resizable=1;rotatable=1;deletable=1;editable=1;locked=0;connectable=1;strokeColor=#FFB366;" vertex="1" parent="1">
          <mxGeometry x="211" y="1528.5" width="120.44" height="31.5" as="geometry" />
        </mxCell>
        <mxCell id="0lItBeviN61shpGZVHg3-11" value="requestHandler&lt;br&gt;&lt;i&gt;&lt;font style=&quot;font-size: 10px;&quot;&gt;(on-search)&lt;/font&gt;&lt;/i&gt;" style="rounded=1;whiteSpace=wrap;html=1;movable=1;resizable=1;rotatable=1;deletable=1;editable=1;locked=0;connectable=1;strokeColor=#FFB366;" vertex="1" parent="1">
          <mxGeometry x="351" y="1496" width="130" height="29" as="geometry" />
        </mxCell>
        <mxCell id="0lItBeviN61shpGZVHg3-9" value="requestBuilder&lt;br&gt;&lt;i&gt;&lt;font style=&quot;font-size: 10px;&quot;&gt;(search)&lt;/font&gt;&lt;/i&gt;" style="rounded=1;whiteSpace=wrap;html=1;movable=1;resizable=1;rotatable=1;deletable=1;editable=1;locked=0;connectable=1;strokeColor=#FFB366;" vertex="1" parent="1">
          <mxGeometry x="351" y="1468" width="130" height="25" as="geometry" />
        </mxCell>
        <mxCell id="0lItBeviN61shpGZVHg3-137" value="&lt;p style=&quot;&quot;&gt;&lt;b&gt;g2pc-dp-core.jar&lt;/b&gt;&lt;/p&gt;" style="rounded=0;whiteSpace=wrap;html=1;align=left;direction=west;horizontal=1;verticalAlign=bottom;movable=1;resizable=1;rotatable=1;deletable=1;editable=1;locked=0;connectable=1;fillColor=#ffe6cc;strokeColor=#d79b00;" vertex="1" parent="1">
          <mxGeometry x="521" y="1427" width="360" height="240" as="geometry" />
        </mxCell>
        <mxCell id="0lItBeviN61shpGZVHg3-143" value="tomcat listener&lt;br&gt;a.b.z.y:8800" style="rounded=1;whiteSpace=wrap;html=1;movable=1;resizable=1;rotatable=1;deletable=1;editable=1;locked=0;connectable=1;strokeColor=#FFB366;" vertex="1" parent="1">
          <mxGeometry x="600" y="1521" width="123.5" height="37" as="geometry" />
        </mxCell>
        <mxCell id="0lItBeviN61shpGZVHg3-144" value="requestBuilder&lt;br&gt;&lt;i&gt;&lt;font style=&quot;font-size: 10px;&quot;&gt;(on-search)&lt;/font&gt;&lt;/i&gt;" style="rounded=1;whiteSpace=wrap;html=1;movable=1;resizable=1;rotatable=1;deletable=1;editable=1;locked=0;connectable=1;strokeColor=#FFB366;" vertex="1" parent="1">
          <mxGeometry x="730" y="1485" width="130" height="29" as="geometry" />
        </mxCell>
        <mxCell id="0lItBeviN61shpGZVHg3-145" value="requestHandler&lt;br&gt;&lt;i&gt;&lt;font style=&quot;font-size: 10px;&quot;&gt;(search)&lt;/font&gt;&lt;/i&gt;" style="rounded=1;whiteSpace=wrap;html=1;movable=1;resizable=1;rotatable=1;deletable=1;editable=1;locked=0;connectable=1;strokeColor=#FFB366;" vertex="1" parent="1">
          <mxGeometry x="730" y="1455" width="130" height="25" as="geometry" />
        </mxCell>
        <mxCell id="0lItBeviN61shpGZVHg3-147" value="&lt;p style=&quot;&quot;&gt;&lt;b&gt;g2pc-common.jar&lt;/b&gt;&lt;/p&gt;" style="rounded=0;whiteSpace=wrap;html=1;align=left;direction=west;horizontal=1;verticalAlign=bottom;movable=1;resizable=1;rotatable=1;deletable=1;editable=1;locked=0;connectable=1;dashed=1;fillColor=#ffe6cc;strokeColor=#d79b00;" vertex="1" parent="1">
          <mxGeometry x="171" y="1688" width="320" height="120" as="geometry" />
        </mxCell>
        <mxCell id="0lItBeviN61shpGZVHg3-149" value="crypto" style="rounded=1;whiteSpace=wrap;html=1;movable=1;resizable=1;rotatable=1;deletable=1;editable=1;locked=0;connectable=1;strokeColor=#FFB366;" vertex="1" parent="1">
          <mxGeometry x="347" y="1703" width="120" height="20" as="geometry" />
        </mxCell>
        <mxCell id="0lItBeviN61shpGZVHg3-150" value="audit" style="rounded=1;whiteSpace=wrap;html=1;movable=1;resizable=1;rotatable=1;deletable=1;editable=1;locked=0;connectable=1;strokeColor=#FFB366;" vertex="1" parent="1">
          <mxGeometry x="348" y="1727" width="120" height="20" as="geometry" />
        </mxCell>
        <mxCell id="0lItBeviN61shpGZVHg3-151" value="validator" style="rounded=1;whiteSpace=wrap;html=1;movable=1;resizable=1;rotatable=1;deletable=1;editable=1;locked=0;connectable=1;strokeColor=#FFB366;" vertex="1" parent="1">
          <mxGeometry x="347" y="1751" width="123" height="18" as="geometry" />
        </mxCell>
        <mxCell id="0lItBeviN61shpGZVHg3-152" value="entity (or dto)" style="rounded=1;whiteSpace=wrap;html=1;movable=1;resizable=1;rotatable=1;deletable=1;editable=1;locked=0;connectable=1;strokeColor=#FFB366;" vertex="1" parent="1">
          <mxGeometry x="349" y="1773" width="120" height="20" as="geometry" />
        </mxCell>
        <mxCell id="0lItBeviN61shpGZVHg3-156" value="g2pc-common.jar" style="rounded=1;whiteSpace=wrap;html=1;movable=1;resizable=1;rotatable=1;deletable=1;editable=1;locked=0;connectable=1;dashed=1;strokeColor=#FFB366;" vertex="1" parent="1">
          <mxGeometry x="730" y="1432" width="130" height="20" as="geometry" />
        </mxCell>
        <mxCell id="0lItBeviN61shpGZVHg3-210" style="edgeStyle=elbowEdgeStyle;rounded=0;orthogonalLoop=1;jettySize=auto;elbow=vertical;html=1;entryX=0.75;entryY=0;entryDx=0;entryDy=0;dashed=1;strokeWidth=1;endArrow=oval;endFill=0;exitX=0.41;exitY=0.981;exitDx=0;exitDy=0;exitPerimeter=0;fontSize=11;strokeColor=#FF6619;dashPattern=12 12;" edge="1" parent="1" source="0lItBeviN61shpGZVHg3-221" target="0lItBeviN61shpGZVHg3-15">
          <mxGeometry relative="1" as="geometry">
            <mxPoint x="650" y="891" as="sourcePoint" />
            <Array as="points">
              <mxPoint x="649" y="988" />
            </Array>
          </mxGeometry>
        </mxCell>
        <mxCell id="0lItBeviN61shpGZVHg3-161" value="entity (or dto)" style="rounded=1;whiteSpace=wrap;html=1;verticalAlign=middle;fillColor=#d5e8d4;strokeColor=#82b366;" vertex="1" parent="1">
          <mxGeometry x="573.75" y="878" width="110" height="18" as="geometry" />
        </mxCell>
        <mxCell id="0lItBeviN61shpGZVHg3-167" value="API Svc" style="rounded=1;whiteSpace=wrap;html=1;verticalAlign=middle;fillColor=#e1d5e7;strokeColor=#9673a6;" vertex="1" parent="1">
          <mxGeometry x="855" y="749" width="60" height="59" as="geometry" />
        </mxCell>
        <mxCell id="0lItBeviN61shpGZVHg3-174" value="" style="endArrow=none;html=1;rounded=0;strokeWidth=2;" edge="1" parent="1">
          <mxGeometry width="50" height="50" relative="1" as="geometry">
            <mxPoint x="39" y="1343" as="sourcePoint" />
            <mxPoint x="1009" y="1340" as="targetPoint" />
          </mxGeometry>
        </mxCell>
        <mxCell id="0lItBeviN61shpGZVHg3-177" value="Scheduler" style="rounded=1;whiteSpace=wrap;html=1;movable=1;resizable=1;rotatable=1;deletable=1;editable=1;locked=0;connectable=1;strokeColor=#FFB366;" vertex="1" parent="1">
          <mxGeometry x="730" y="1620.5" width="130" height="29" as="geometry" />
        </mxCell>
        <mxCell id="0lItBeviN61shpGZVHg3-180" value="&lt;font style=&quot;font-size: 10px;&quot;&gt;Queue&lt;/font&gt;" style="shape=cylinder3;whiteSpace=wrap;html=1;boundedLbl=1;backgroundOutline=1;size=9;rotation=0;direction=south;strokeColor=#FFB366;" vertex="1" parent="1">
          <mxGeometry x="739" y="1589.5" width="91" height="20" as="geometry" />
        </mxCell>
        <mxCell id="0lItBeviN61shpGZVHg3-183" value="G2PC Status Mgmt" style="rounded=1;whiteSpace=wrap;html=1;movable=1;resizable=1;rotatable=1;deletable=1;editable=1;locked=0;connectable=1;strokeColor=#FFB366;" vertex="1" parent="1">
          <mxGeometry x="598.5" y="1617.5" width="120" height="20" as="geometry" />
        </mxCell>
        <mxCell id="0lItBeviN61shpGZVHg3-184" value="DB" style="shape=cylinder3;whiteSpace=wrap;html=1;boundedLbl=1;backgroundOutline=1;size=15;movable=1;resizable=1;rotatable=1;deletable=1;editable=1;locked=0;connectable=1;" vertex="1" parent="1">
          <mxGeometry x="530" y="1555" width="40" height="75" as="geometry" />
        </mxCell>
        <mxCell id="0lItBeviN61shpGZVHg3-189" value="NamedQueryHandler" style="rounded=1;whiteSpace=wrap;html=1;movable=1;resizable=1;rotatable=1;deletable=1;editable=1;locked=0;connectable=1;fontSize=11;strokeColor=#FFB366;" vertex="1" parent="1">
          <mxGeometry x="221" y="1439" width="120" height="20" as="geometry" />
        </mxCell>
        <mxCell id="0lItBeviN61shpGZVHg3-190" value="IDTypeQueryHandler" style="rounded=1;whiteSpace=wrap;html=1;movable=1;resizable=1;rotatable=1;deletable=1;editable=1;locked=0;connectable=1;fontSize=11;strokeColor=#FFB366;" vertex="1" parent="1">
          <mxGeometry x="221" y="1469" width="120" height="20" as="geometry" />
        </mxCell>
        <mxCell id="0lItBeviN61shpGZVHg3-191" value="&lt;font style=&quot;font-size: 11px;&quot;&gt;PredicateQueryHandler&lt;/font&gt;" style="rounded=1;whiteSpace=wrap;html=1;movable=1;resizable=1;rotatable=1;deletable=1;editable=1;locked=0;connectable=1;fontSize=11;strokeColor=#FFB366;" vertex="1" parent="1">
          <mxGeometry x="221" y="1499" width="120" height="20" as="geometry" />
        </mxCell>
        <mxCell id="0lItBeviN61shpGZVHg3-200" value="NamedQueryProcessor" style="rounded=1;whiteSpace=wrap;html=1;movable=1;resizable=1;rotatable=1;deletable=1;editable=1;locked=0;connectable=1;fontSize=11;strokeColor=#FFB366;" vertex="1" parent="1">
          <mxGeometry x="580" y="1431" width="138.5" height="20" as="geometry" />
        </mxCell>
        <mxCell id="0lItBeviN61shpGZVHg3-201" value="IDTypeQueryProcessor" style="rounded=1;whiteSpace=wrap;html=1;movable=1;resizable=1;rotatable=1;deletable=1;editable=1;locked=0;connectable=1;fontSize=11;strokeColor=#FFB366;" vertex="1" parent="1">
          <mxGeometry x="580" y="1461" width="137.5" height="20" as="geometry" />
        </mxCell>
        <mxCell id="0lItBeviN61shpGZVHg3-202" value="PredicateQueryProcessor" style="rounded=1;whiteSpace=wrap;html=1;movable=1;resizable=1;rotatable=1;deletable=1;editable=1;locked=0;connectable=1;fontSize=11;strokeColor=#FFB366;" vertex="1" parent="1">
          <mxGeometry x="580" y="1491" width="138.5" height="20" as="geometry" />
        </mxCell>
        <mxCell id="0lItBeviN61shpGZVHg3-209" style="edgeStyle=elbowEdgeStyle;rounded=0;orthogonalLoop=1;jettySize=auto;elbow=vertical;html=1;entryX=0.394;entryY=-0.048;entryDx=0;entryDy=0;entryPerimeter=0;dashed=1;dashPattern=12 12;strokeWidth=1;endArrow=oval;endFill=0;strokeColor=#FF6619;" edge="1" parent="1" target="0lItBeviN61shpGZVHg3-15">
          <mxGeometry relative="1" as="geometry">
            <mxPoint x="299" y="878" as="sourcePoint" />
            <mxPoint x="628" y="1032.0320000000002" as="targetPoint" />
            <Array as="points">
              <mxPoint x="459" y="998" />
            </Array>
          </mxGeometry>
        </mxCell>
        <mxCell id="0lItBeviN61shpGZVHg3-211" style="edgeStyle=elbowEdgeStyle;rounded=0;orthogonalLoop=1;jettySize=auto;elbow=vertical;html=1;entryX=0.632;entryY=0.987;entryDx=0;entryDy=0;entryPerimeter=0;exitX=0.5;exitY=0;exitDx=0;exitDy=0;dashed=1;dashPattern=8 8;strokeWidth=1;endArrow=oval;endFill=0;strokeColor=#FF6619;" edge="1" parent="1" source="0lItBeviN61shpGZVHg3-15" target="0lItBeviN61shpGZVHg3-30">
          <mxGeometry relative="1" as="geometry">
            <mxPoint x="611.26" y="1032.0320000000002" as="sourcePoint" />
            <mxPoint x="319.0999999999999" y="891.072" as="targetPoint" />
            <Array as="points">
              <mxPoint x="439" y="992" />
            </Array>
          </mxGeometry>
        </mxCell>
        <mxCell id="0lItBeviN61shpGZVHg3-217" value="Client Interface &lt;br&gt;&lt;div style=&quot;&quot;&gt;&lt;br&gt;&lt;/div&gt;&lt;br&gt;- getFarmerInfo&lt;br&gt;- getMobileStatus&lt;br&gt;- etc" style="rounded=1;whiteSpace=wrap;html=1;verticalAlign=top;align=left;fillColor=#e1d5e7;strokeColor=#9673a6;" vertex="1" parent="1">
          <mxGeometry x="371" y="1050.5" width="140" height="100.5" as="geometry" />
        </mxCell>
        <mxCell id="0lItBeviN61shpGZVHg3-218" value="&lt;b&gt;G2P Connect &lt;br&gt;Registry Access&lt;br&gt;&lt;/b&gt;" style="text;html=1;align=center;verticalAlign=middle;resizable=0;points=[];autosize=1;strokeColor=none;fillColor=none;" vertex="1" parent="1">
          <mxGeometry x="470" y="10" width="120" height="40" as="geometry" />
        </mxCell>
        <mxCell id="0lItBeviN61shpGZVHg3-247" style="edgeStyle=elbowEdgeStyle;rounded=0;orthogonalLoop=1;jettySize=auto;html=1;exitX=1;exitY=0.5;exitDx=0;exitDy=0;entryX=0;entryY=0.5;entryDx=0;entryDy=0;" edge="1" parent="1" source="0lItBeviN61shpGZVHg3-221" target="0lItBeviN61shpGZVHg3-167">
          <mxGeometry relative="1" as="geometry" />
        </mxCell>
        <mxCell id="0lItBeviN61shpGZVHg3-221" value="g2pc-dp-core.jar&lt;br&gt;&lt;br&gt;&lt;i style=&quot;font-size: 10px;&quot;&gt;/search &amp;amp; /sync/search&lt;br&gt;&lt;div style=&quot;text-align: left;&quot;&gt;&lt;i&gt;/txn/status &amp;amp; /sync/txn/status&lt;/i&gt;&lt;/div&gt;&lt;/i&gt;" style="rounded=1;whiteSpace=wrap;html=1;verticalAlign=top;fillColor=#ffe6cc;strokeColor=#d79b00;" vertex="1" parent="1">
          <mxGeometry x="669" y="798" width="134" height="69.5" as="geometry" />
        </mxCell>
        <mxCell id="0lItBeviN61shpGZVHg3-222" value="requestProcessor&lt;br&gt;&lt;i&gt;&lt;font style=&quot;font-size: 10px;&quot;&gt;(on-search)&lt;/font&gt;&lt;/i&gt;" style="rounded=1;whiteSpace=wrap;html=1;movable=1;resizable=1;rotatable=1;deletable=1;editable=1;locked=0;connectable=1;strokeColor=#FFB366;" vertex="1" parent="1">
          <mxGeometry x="351" y="1532.5" width="130" height="44.5" as="geometry" />
        </mxCell>
        <mxCell id="0lItBeviN61shpGZVHg3-223" value="requestProcessor&lt;br&gt;&lt;i&gt;&lt;font style=&quot;font-size: 10px;&quot;&gt;(search / sync/search)&lt;/font&gt;&lt;/i&gt;" style="rounded=1;whiteSpace=wrap;html=1;movable=1;resizable=1;rotatable=1;deletable=1;editable=1;locked=0;connectable=1;strokeColor=#FFB366;" vertex="1" parent="1">
          <mxGeometry x="730" y="1520" width="130" height="44.5" as="geometry" />
        </mxCell>
        <mxCell id="0lItBeviN61shpGZVHg3-228" value="DB" style="shape=cylinder3;whiteSpace=wrap;html=1;boundedLbl=1;backgroundOutline=1;size=15;movable=1;resizable=1;rotatable=1;deletable=1;editable=1;locked=0;connectable=1;fillColor=#e1d5e7;strokeColor=#9673a6;" vertex="1" parent="1">
          <mxGeometry x="541" y="1141" width="40" height="75" as="geometry" />
        </mxCell>
        <mxCell id="0lItBeviN61shpGZVHg3-229" value="Auth &amp;amp; AuthZ" style="rounded=1;whiteSpace=wrap;html=1;movable=1;resizable=1;rotatable=1;deletable=1;editable=1;locked=0;connectable=1;strokeColor=#FFB366;" vertex="1" parent="1">
          <mxGeometry x="222" y="1703" width="120" height="20" as="geometry" />
        </mxCell>
        <mxCell id="0lItBeviN61shpGZVHg3-231" value="Keycloak" style="shape=cylinder3;whiteSpace=wrap;html=1;boundedLbl=1;backgroundOutline=1;size=15;movable=1;resizable=1;rotatable=1;deletable=1;editable=1;locked=0;connectable=1;fillColor=#e1d5e7;strokeColor=#9673a6;" vertex="1" parent="1">
          <mxGeometry x="754" y="1193" width="55" height="50" as="geometry" />
        </mxCell>
        <mxCell id="0lItBeviN61shpGZVHg3-232" value="&lt;font style=&quot;font-size: 10px;&quot;&gt;Keycloak&lt;/font&gt;" style="shape=cylinder3;whiteSpace=wrap;html=1;boundedLbl=1;backgroundOutline=1;size=15;movable=1;resizable=1;rotatable=1;deletable=1;editable=1;locked=0;connectable=1;fillColor=#e1d5e7;strokeColor=#9673a6;" vertex="1" parent="1">
          <mxGeometry x="860" y="878" width="55" height="45" as="geometry" />
        </mxCell>
        <mxCell id="0lItBeviN61shpGZVHg3-233" value="&lt;font style=&quot;font-size: 10px;&quot;&gt;Keycloak&lt;/font&gt;" style="shape=cylinder3;whiteSpace=wrap;html=1;boundedLbl=1;backgroundOutline=1;size=15;movable=1;resizable=1;rotatable=1;deletable=1;editable=1;locked=0;connectable=1;fillColor=#e1d5e7;strokeColor=#9673a6;" vertex="1" parent="1">
          <mxGeometry x="452" y="918" width="55" height="45" as="geometry" />
        </mxCell>
        <mxCell id="0lItBeviN61shpGZVHg3-237" value="&lt;font style=&quot;font-size: 10px;&quot;&gt;Registry-2&lt;/font&gt;" style="shape=cylinder3;whiteSpace=wrap;html=1;boundedLbl=1;backgroundOutline=1;size=15;fillColor=#e1d5e7;strokeColor=#9673a6;" vertex="1" parent="1">
          <mxGeometry x="856" y="818.5" width="58" height="50" as="geometry" />
        </mxCell>
        <mxCell id="0lItBeviN61shpGZVHg3-239" style="edgeStyle=elbowEdgeStyle;rounded=0;orthogonalLoop=1;jettySize=auto;elbow=vertical;html=1;entryX=1;entryY=0.5;entryDx=0;entryDy=0;entryPerimeter=0;exitX=1;exitY=0.5;exitDx=0;exitDy=0;" edge="1" parent="1" source="0lItBeviN61shpGZVHg3-167" target="0lItBeviN61shpGZVHg3-237">
          <mxGeometry relative="1" as="geometry">
            <Array as="points">
              <mxPoint x="929" y="818" />
            </Array>
          </mxGeometry>
        </mxCell>
        <mxCell id="uvi0yni_VLSEUp65hcLW-1" value="&lt;b style=&quot;border-color: var(--border-color); font-size: 11px; background-color: rgb(255, 255, 255);&quot;&gt;&lt;span style=&quot;border-color: var(--border-color);&quot;&gt;G2PC Core Libraries&lt;/span&gt;&lt;/b&gt;" style="text;html=1;align=center;verticalAlign=middle;resizable=0;points=[];autosize=1;strokeColor=none;fillColor=none;fontStyle=0" vertex="1" parent="1">
          <mxGeometry x="440" y="1350" width="130" height="30" as="geometry" />
        </mxCell>
        <mxCell id="d_0QQ_SgHGCF8koZ1ng2-1" value="&lt;b style=&quot;border-color: var(--border-color);&quot;&gt;&lt;font style=&quot;font-size: 10px;&quot;&gt;DP 1 Backend &lt;/font&gt;&lt;br&gt;&lt;font style=&quot;font-size: 9px;&quot;&gt;&lt;i&gt;(Owned &amp;amp; Controlled by DP-1)&lt;/i&gt;&lt;/font&gt;&lt;/b&gt;" style="rounded=0;whiteSpace=wrap;html=1;verticalAlign=top;align=left;strokeWidth=0.5;gradientColor=#C4C4C4;fillColor=default;gradientDirection=east;" vertex="1" parent="1">
          <mxGeometry x="121" y="369" width="250" height="101" as="geometry" />
        </mxCell>
        <mxCell id="d_0QQ_SgHGCF8koZ1ng2-2" value="&lt;b style=&quot;border-color: var(--border-color);&quot;&gt;&lt;font style=&quot;border-color: var(--border-color); font-size: 10px;&quot;&gt;DP 2 Backend&amp;nbsp;&lt;/font&gt;&lt;br style=&quot;border-color: var(--border-color);&quot;&gt;&lt;font style=&quot;border-color: var(--border-color); font-size: 9px;&quot;&gt;&lt;i style=&quot;border-color: var(--border-color);&quot;&gt;(Owned &amp;amp; Controlled by DP-2)&lt;/i&gt;&lt;/font&gt;&lt;/b&gt;" style="rounded=0;whiteSpace=wrap;html=1;verticalAlign=top;align=left;strokeWidth=0.5;gradientColor=#C4C4C4;gradientDirection=east;" vertex="1" parent="1">
          <mxGeometry x="452" y="369" width="250" height="101" as="geometry" />
        </mxCell>
        <mxCell id="d_0QQ_SgHGCF8koZ1ng2-9" style="edgeStyle=orthogonalEdgeStyle;rounded=0;orthogonalLoop=1;jettySize=auto;html=1;entryX=0.5;entryY=1;entryDx=0;entryDy=0;exitX=0.5;exitY=0;exitDx=0;exitDy=0;startArrow=classic;startFill=1;" edge="1" parent="1">
          <mxGeometry relative="1" as="geometry">
            <mxPoint x="397.5" y="528" as="sourcePoint" />
            <mxPoint x="532.5" y="447" as="targetPoint" />
            <Array as="points">
              <mxPoint x="398" y="484" />
              <mxPoint x="533" y="484" />
            </Array>
          </mxGeometry>
        </mxCell>
        <mxCell id="d_0QQ_SgHGCF8koZ1ng2-4" value="&lt;b&gt;G2PC DP Adaptor&lt;/b&gt;" style="rounded=0;whiteSpace=wrap;html=1;verticalAlign=top;align=left;strokeWidth=0.5;fillColor=#d5e8d4;strokeColor=#82b366;" vertex="1" parent="1">
          <mxGeometry x="232" y="407" width="130" height="40" as="geometry" />
        </mxCell>
        <mxCell id="d_0QQ_SgHGCF8koZ1ng2-5" value="&lt;b&gt;G2PC DP Adaptor&lt;/b&gt;" style="rounded=0;whiteSpace=wrap;html=1;verticalAlign=top;align=left;strokeWidth=0.5;fillColor=#d5e8d4;strokeColor=#82b366;" vertex="1" parent="1">
          <mxGeometry x="471" y="407" width="131" height="40" as="geometry" />
        </mxCell>
        <mxCell id="d_0QQ_SgHGCF8koZ1ng2-6" style="edgeStyle=orthogonalEdgeStyle;rounded=0;orthogonalLoop=1;jettySize=auto;html=1;entryX=0;entryY=0.5;entryDx=0;entryDy=0;" edge="1" parent="1" source="d_0QQ_SgHGCF8koZ1ng2-4" target="d_0QQ_SgHGCF8koZ1ng2-5">
          <mxGeometry relative="1" as="geometry">
            <mxPoint x="462" y="419" as="targetPoint" />
          </mxGeometry>
        </mxCell>
        <mxCell id="d_0QQ_SgHGCF8koZ1ng2-8" style="edgeStyle=orthogonalEdgeStyle;rounded=0;orthogonalLoop=1;jettySize=auto;html=1;entryX=0.5;entryY=1;entryDx=0;entryDy=0;exitX=0.443;exitY=0.05;exitDx=0;exitDy=0;startArrow=classic;startFill=1;exitPerimeter=0;" edge="1" parent="1">
          <mxGeometry relative="1" as="geometry">
            <mxPoint x="396.0329999999999" y="527" as="sourcePoint" />
            <mxPoint x="298" y="442" as="targetPoint" />
            <Array as="points">
              <mxPoint x="396" y="524" />
              <mxPoint x="398" y="524" />
              <mxPoint x="398" y="483" />
              <mxPoint x="298" y="483" />
            </Array>
          </mxGeometry>
        </mxCell>
        <mxCell id="d_0QQ_SgHGCF8koZ1ng2-7" value="&lt;b&gt;G2PC DC Adaptor&lt;/b&gt;" style="rounded=0;whiteSpace=wrap;html=1;verticalAlign=top;align=left;strokeWidth=0.5;fillColor=#d5e8d4;strokeColor=#82b366;" vertex="1" parent="1">
          <mxGeometry x="337" y="528" width="131" height="40" as="geometry" />
        </mxCell>
        <mxCell id="d_0QQ_SgHGCF8koZ1ng2-11" value="" style="endArrow=none;html=1;rounded=0;strokeWidth=2;" edge="1" parent="1">
          <mxGeometry width="50" height="50" relative="1" as="geometry">
            <mxPoint x="40" y="632" as="sourcePoint" />
            <mxPoint x="1001.25" y="629" as="targetPoint" />
          </mxGeometry>
        </mxCell>
        <mxCell id="d_0QQ_SgHGCF8koZ1ng2-12" value="&lt;span style=&quot;border-color: var(--border-color); font-size: 11px; background-color: rgb(255, 255, 255);&quot;&gt;&lt;span style=&quot;border-color: var(--border-color);&quot;&gt;G2PC Data Access&amp;nbsp;&lt;br&gt;Logical Architecture&lt;br&gt;&lt;/span&gt;&lt;/span&gt;" style="text;html=1;align=center;verticalAlign=middle;resizable=0;points=[];autosize=1;strokeColor=none;fillColor=none;fontStyle=1" vertex="1" parent="1">
          <mxGeometry x="445" y="631" width="130" height="40" as="geometry" />
        </mxCell>
        <mxCell id="d_0QQ_SgHGCF8koZ1ng2-13" value="" style="endArrow=none;html=1;rounded=0;strokeWidth=2;" edge="1" parent="1">
          <mxGeometry width="50" height="50" relative="1" as="geometry">
            <mxPoint x="43.38" y="323" as="sourcePoint" />
            <mxPoint x="1004.63" y="320" as="targetPoint" />
          </mxGeometry>
        </mxCell>
        <mxCell id="d_0QQ_SgHGCF8koZ1ng2-14" value="&lt;b style=&quot;border-color: var(--border-color);&quot;&gt;&lt;span&gt;Adaptor Design&lt;/span&gt;&lt;/b&gt;" style="text;html=1;align=center;verticalAlign=middle;resizable=0;points=[];autosize=1;strokeColor=none;fillColor=none;fontStyle=0" vertex="1" parent="1">
          <mxGeometry x="463.75" y="322" width="110" height="30" as="geometry" />
        </mxCell>
        <mxCell id="d_0QQ_SgHGCF8koZ1ng2-15" value="" style="endArrow=none;html=1;rounded=0;strokeWidth=2;" edge="1" parent="1">
          <mxGeometry width="50" height="50" relative="1" as="geometry">
            <mxPoint x="40" y="1823" as="sourcePoint" />
            <mxPoint x="1010" y="1820" as="targetPoint" />
          </mxGeometry>
        </mxCell>
        <mxCell id="d_0QQ_SgHGCF8koZ1ng2-20" value="&lt;u&gt;&lt;b&gt;&lt;font style=&quot;font-size: 15px;&quot;&gt;Design Notes:&lt;/font&gt;&lt;/b&gt;&lt;/u&gt;&lt;u&gt;&lt;b&gt;&lt;br&gt;&lt;ul&gt;&lt;li&gt;&lt;u style=&quot;font-weight: normal;&quot;&gt;G2PC Common&lt;/u&gt;&lt;br&gt;&lt;/li&gt;&lt;/ul&gt;&lt;/b&gt;&lt;/u&gt;&lt;ol&gt;&lt;ol&gt;&lt;li&gt;G2P Connect common libraries to handle all common reusable aspects of G2P Connect Protocol code&lt;/li&gt;&lt;li&gt;Auth &amp;amp; AuthZ required to enable access to end points are controlled in common code&lt;/li&gt;&lt;/ol&gt;&lt;/ol&gt;&lt;u&gt;&lt;ul&gt;&lt;li&gt;&lt;u&gt;G2PC DP Core&lt;/u&gt;&lt;br&gt;&lt;/li&gt;&lt;/ul&gt;&lt;/u&gt;&lt;ol&gt;&lt;ol&gt;&lt;li&gt;DP core library to host tomcat, sftp and jms listening end points to handle requests agnostic to underlying transport layer&lt;/li&gt;&lt;li&gt;Manage status information for each request along with status and reason codes&lt;/li&gt;&lt;li style=&quot;border-color: var(--border-color);&quot;&gt;Capable to handle both sync/async requests&lt;/li&gt;&lt;li&gt;Use this DB to schedule and process sync/async requests&amp;nbsp;&lt;/li&gt;&lt;li&gt;Handle request/response &amp;amp; facility processing of &amp;nbsp;G2P Connect Queries through the adaptor&lt;/li&gt;&lt;/ol&gt;&lt;/ol&gt;&lt;div&gt;&lt;ul&gt;&lt;li&gt;&lt;u style=&quot;border-color: var(--border-color);&quot;&gt;G2PC DC Core&lt;/u&gt;&lt;br&gt;&lt;/li&gt;&lt;/ul&gt;&lt;ol style=&quot;border-color: var(--border-color);&quot;&gt;&lt;ol&gt;&lt;li style=&quot;border-color: var(--border-color);&quot;&gt;DC core library to host tomcat, sftp and jms listening end points to handle callback responses agnostic to underlying transport layer&lt;/li&gt;&lt;li style=&quot;border-color: var(--border-color);&quot;&gt;Manage building requests and handling call back responses&lt;/li&gt;&lt;li style=&quot;border-color: var(--border-color);&quot;&gt;Capable to handle both sync/async requests&lt;/li&gt;&lt;li style=&quot;border-color: var(--border-color);&quot;&gt;Use this DB to schedule and process sync/async requests&amp;nbsp;&lt;/li&gt;&lt;li style=&quot;border-color: var(--border-color);&quot;&gt;Handle request/response &amp;amp; facility processing of &amp;nbsp;G2P Connect Queries through the adaptor&lt;/li&gt;&lt;/ol&gt;&lt;/ol&gt;&lt;/div&gt;&lt;u&gt;&lt;ul&gt;&lt;li&gt;&lt;u&gt;G2PC DP Adaptor&lt;/u&gt;&lt;br&gt;&lt;/li&gt;&lt;/ul&gt;&lt;/u&gt;&lt;ol&gt;&lt;ol&gt;&lt;li&gt;DP Adaptor is a reference library for each Data Provider to customise registry context entities and queries&amp;nbsp;&lt;/li&gt;&lt;li&gt;DP Adaptor initiates underlying DB queries or using DP internally exposed APIs to fetch the required data&amp;nbsp;&lt;/li&gt;&lt;li&gt;DP Adaptor design enables each Data Provider to expose underlying registry data through G2P Connect protocol&lt;/li&gt;&lt;li&gt;Developers are required to customise the Adaptor library to expose the require queries and entity definitions&lt;/li&gt;&lt;/ol&gt;&lt;/ol&gt;&lt;u&gt;&lt;ul&gt;&lt;li&gt;&lt;u&gt;G2PC DC Adaptor&lt;/u&gt;&lt;br&gt;&lt;/li&gt;&lt;/ul&gt;&lt;/u&gt;&lt;ol&gt;&lt;ol&gt;&lt;li&gt;DC Adaptor is a reference library for each Data Consumer to customise the registry context entries and queries&lt;/li&gt;&lt;li&gt;DC Adaptor facilities calling of each Data Provider APIs required as per the context of DC&lt;/li&gt;&lt;/ol&gt;&lt;/ol&gt;&lt;div&gt;&lt;ul&gt;&lt;li&gt;&lt;u style=&quot;border-color: var(--border-color);&quot;&gt;DC &amp;amp; DP Backend Systems/Platforms/Infra/etc.,&lt;/u&gt;&lt;br&gt;&lt;/li&gt;&lt;/ul&gt;&lt;ol style=&quot;border-color: var(--border-color);&quot;&gt;&lt;ol&gt;&lt;li style=&quot;border-color: var(--border-color);&quot;&gt;Data Consumer and Data Provider Backend should implement key cloak svc to manage trusted sender/receivers&lt;/li&gt;&lt;li style=&quot;border-color: var(--border-color);&quot;&gt;Onboarding of sender/receiver entities is assumed be done by respective backend teams&lt;/li&gt;&lt;li style=&quot;border-color: var(--border-color);&quot;&gt;Data providers are suppose to expose all named queries and data schemas as .well-known files and used in adaptors&lt;/li&gt;&lt;li style=&quot;border-color: var(--border-color);&quot;&gt;DC &amp;amp; DP have to go through an dev, integration and test cycle and follow respective development lifecycle processes&lt;/li&gt;&lt;/ol&gt;&lt;/ol&gt;&lt;div&gt;&lt;br&gt;&lt;/div&gt;&lt;/div&gt;&lt;div&gt;&lt;span style=&quot;white-space: pre;&quot;&gt;&lt;span style=&quot;white-space: pre;&quot;&gt;&lt;br&gt;&lt;/span&gt;&lt;/span&gt;&lt;/div&gt;&lt;div&gt;&lt;span style=&quot;white-space: pre;&quot;&gt;&lt;span style=&quot;white-space: pre;&quot;&gt;&lt;br&gt;&lt;/span&gt;&lt;/span&gt;&lt;/div&gt;&lt;div&gt;&lt;span style=&quot;white-space: pre;&quot;&gt;&lt;span style=&quot;white-space: pre;&quot;&gt;&lt;br&gt;&lt;/span&gt;&lt;/span&gt;&lt;/div&gt;&lt;div&gt;&lt;span style=&quot;white-space: pre;&quot;&gt;&lt;span style=&quot;white-space: pre;&quot;&gt;&lt;br&gt;&lt;/span&gt;&lt;/span&gt;&lt;/div&gt;&lt;div&gt;&lt;span style=&quot;white-space: pre;&quot;&gt;&lt;b&gt;&lt;br&gt;&lt;/b&gt;&lt;/span&gt;&lt;/div&gt;&lt;div&gt;&lt;span style=&quot;white-space: pre;&quot;&gt;&lt;b&gt;&lt;br&gt;&lt;/b&gt;&lt;/span&gt;&lt;/div&gt;&lt;div&gt;&lt;br&gt;&lt;/div&gt;" style="whiteSpace=wrap;html=1;align=left;verticalAlign=top;" vertex="1" parent="1">
          <mxGeometry x="81" y="1861" width="819" height="639" as="geometry" />
        </mxCell>
        <mxCell id="d_0QQ_SgHGCF8koZ1ng2-21" value="sftp listener" style="rounded=1;whiteSpace=wrap;html=1;movable=1;resizable=1;rotatable=1;deletable=1;editable=1;locked=0;connectable=1;strokeColor=#FFB366;" vertex="1" parent="1">
          <mxGeometry x="600" y="1563.5" width="130" height="20.5" as="geometry" />
        </mxCell>
        <mxCell id="d_0QQ_SgHGCF8koZ1ng2-22" value="JMS listener" style="rounded=1;whiteSpace=wrap;html=1;movable=1;resizable=1;rotatable=1;deletable=1;editable=1;locked=0;connectable=1;align=left;strokeColor=#FFB366;" vertex="1" parent="1">
          <mxGeometry x="601" y="1588.5" width="130" height="20.5" as="geometry" />
        </mxCell>
        <mxCell id="d_0QQ_SgHGCF8koZ1ng2-23" value="sftp listener" style="rounded=1;whiteSpace=wrap;html=1;movable=1;resizable=1;rotatable=1;deletable=1;editable=1;locked=0;connectable=1;strokeColor=#FFB366;" vertex="1" parent="1">
          <mxGeometry x="211" y="1564" width="130" height="20.5" as="geometry" />
        </mxCell>
        <mxCell id="d_0QQ_SgHGCF8koZ1ng2-24" value="JMS listener" style="rounded=1;whiteSpace=wrap;html=1;movable=1;resizable=1;rotatable=1;deletable=1;editable=1;locked=0;connectable=1;align=left;strokeColor=#FFB366;" vertex="1" parent="1">
          <mxGeometry x="212" y="1589" width="128" height="31" as="geometry" />
        </mxCell>
        <mxCell id="d_0QQ_SgHGCF8koZ1ng2-27" value="&lt;font style=&quot;font-size: 9px;&quot;&gt;Q&lt;/font&gt;" style="shape=cylinder3;whiteSpace=wrap;html=1;boundedLbl=1;backgroundOutline=1;size=9;rotation=0;direction=south;fontSize=9;strokeColor=#FFB366;" vertex="1" parent="1">
          <mxGeometry x="285" y="1606" width="50" height="10.5" as="geometry" />
        </mxCell>
        <mxCell id="d_0QQ_SgHGCF8koZ1ng2-28" value="&lt;font style=&quot;font-size: 9px;&quot;&gt;Q&lt;/font&gt;" style="shape=cylinder3;whiteSpace=wrap;html=1;boundedLbl=1;backgroundOutline=1;size=9;rotation=0;direction=south;fontSize=9;strokeColor=#FFB366;" vertex="1" parent="1">
          <mxGeometry x="672" y="1590" width="50" height="16" as="geometry" />
        </mxCell>
        <mxCell id="d_0QQ_SgHGCF8koZ1ng2-33" value="DC Backend &lt;br&gt;App/Svc" style="rounded=1;whiteSpace=wrap;html=1;verticalAlign=middle;align=center;fillColor=#e1d5e7;strokeColor=#9673a6;fontSize=10;" vertex="1" parent="1">
          <mxGeometry x="271" y="1050.5" width="79" height="100.5" as="geometry" />
        </mxCell>
        <mxCell id="d_0QQ_SgHGCF8koZ1ng2-34" value="&lt;b&gt;Reference&lt;/b&gt;&lt;br&gt;&lt;br&gt;&lt;br&gt;&lt;br&gt;&lt;br&gt;&lt;br&gt;&lt;br&gt;&lt;br&gt;&lt;br&gt;&lt;ol&gt;&lt;li&gt;&lt;i&gt;DP - &amp;nbsp;Data Provider&lt;/i&gt;&lt;/li&gt;&lt;li&gt;&lt;i&gt;DC - Data Consumer&lt;/i&gt;&lt;/li&gt;&lt;li&gt;&lt;i&gt;G2PC - G2P Connect Protocol&lt;/i&gt;&lt;/li&gt;&lt;/ol&gt;" style="rounded=0;whiteSpace=wrap;html=1;align=left;verticalAlign=top;fillColor=#f5f5f5;fontColor=#333333;strokeColor=#666666;" vertex="1" parent="1">
          <mxGeometry x="630" y="70" width="290" height="230" as="geometry" />
        </mxCell>
        <mxCell id="d_0QQ_SgHGCF8koZ1ng2-35" value="G2PC&lt;br style=&quot;font-size: 9px;&quot;&gt;Open Source Libs" style="rounded=0;whiteSpace=wrap;html=1;fillColor=#ffe6cc;strokeColor=#d79b00;fontSize=9;" vertex="1" parent="1">
          <mxGeometry x="641" y="103.5" width="119" height="40" as="geometry" />
        </mxCell>
        <mxCell id="d_0QQ_SgHGCF8koZ1ng2-36" value="G2PC&lt;br style=&quot;font-size: 9px;&quot;&gt;Open Source &lt;br&gt;Ref Libs &lt;br&gt;(DC/DP to customise)" style="rounded=0;whiteSpace=wrap;html=1;fillColor=#d5e8d4;strokeColor=#82b366;fontSize=9;" vertex="1" parent="1">
          <mxGeometry x="770" y="103.5" width="119" height="40" as="geometry" />
        </mxCell>
        <mxCell id="d_0QQ_SgHGCF8koZ1ng2-37" value="DC/DP &lt;br&gt;context specific &lt;br&gt;code / app / infra" style="rounded=0;whiteSpace=wrap;html=1;fillColor=#e1d5e7;strokeColor=#9673a6;fontSize=9;" vertex="1" parent="1">
          <mxGeometry x="641" y="154" width="118" height="40" as="geometry" />
        </mxCell>
        <mxCell id="d_0QQ_SgHGCF8koZ1ng2-38" value="G2PC&amp;nbsp;&lt;br&gt;Registry Svc &lt;br&gt;(Docker)" style="rounded=0;whiteSpace=wrap;html=1;fillColor=#dae8fc;strokeColor=#6c8ebf;fontSize=9;" vertex="1" parent="1">
          <mxGeometry x="770" y="154" width="118" height="40" as="geometry" />
        </mxCell>
        <mxCell id="d_0QQ_SgHGCF8koZ1ng2-39" value="&lt;b&gt;Notes:&lt;/b&gt;&lt;br&gt;&lt;br&gt;&lt;ol&gt;&lt;li&gt;Open Source reference implementation for countries to easily adopt G2PC protocol for data sharing&lt;/li&gt;&lt;li&gt;The reference code to enable any data provider to host a docker service customised &amp;amp; governed by the data provider policies&lt;/li&gt;&lt;li&gt;The entire implementation is open sourced for countries to customise and use&lt;/li&gt;&lt;li&gt;Data provider&#39;s registry specific entity schemas and queries can be customised in the respective adaptor modules&lt;/li&gt;&lt;li&gt;The intent of this open source library initiative is to enable data providers and consumers to focus on the data query layer and reuse the underlying protocol specific technical details for quicker adoption&amp;nbsp;&lt;/li&gt;&lt;/ol&gt;" style="rounded=0;whiteSpace=wrap;html=1;align=left;verticalAlign=top;fillColor=#f5f5f5;fontColor=#333333;strokeColor=#666666;" vertex="1" parent="1">
          <mxGeometry x="43.44" y="70" width="558.56" height="230" as="geometry" />
        </mxCell>
      </root>
    </mxGraphModel>
  </diagram>
  <diagram id="NGhay7XTPCFrRknfRBTu" name="disburse">
    <mxGraphModel grid="1" page="1" gridSize="10" guides="1" tooltips="1" connect="1" arrows="1" fold="1" pageScale="1" pageWidth="827" pageHeight="1169" math="0" shadow="0">
      <root>
        <mxCell id="0" />
        <mxCell id="1" parent="0" />
      </root>
    </mxGraphModel>
  </diagram>
  <diagram id="VxGesfP9ea_LQ13mWLCx" name="mapper">
    <mxGraphModel grid="1" page="1" gridSize="10" guides="1" tooltips="1" connect="1" arrows="1" fold="1" pageScale="1" pageWidth="827" pageHeight="1169" math="0" shadow="0">
      <root>
        <mxCell id="0" />
        <mxCell id="1" parent="0" />
      </root>
    </mxGraphModel>
  </diagram>
</mxfile>
